<svg viewBox="0 0 24 24" preserveAspectRatio="xMidYMid meet" focusable="false" class="style-scope iron-icon" style="pointer-events: none; display: block; width: 100%; height: 100%;"><g class="style-scope iron-icon">
        <path d="M19 3H5c-1.1 0-2 .9-2 2v14c0 1.1.9 2 2 2h14c1.1 0 2-.9 2-2V5c0-1.1-.9-2-2-2zM8 9.5c-.83 0-1.5-.67-1.5-1.5S7.17 6.5 8 6.5s1.5.67 1.5 1.5S8.83 9.5 8 9.5zm4 4c-.83 0-1.5-.67-1.5-1.5s.67-1.5 1.5-1.5 1.5.67 1.5 1.5-.67 1.5-1.5 1.5zm4 4c-.83 0-1.5-.67-1.5-1.5s.67-1.5 1.5-1.5 1.5.67 1.5 1.5-.67 1.5-1.5 1.5z" class="style-scope iron-icon"></path>
      </g></svg>
